<mxfile host="app.diagrams.net" modified="2021-04-01T13:03:22.037Z" agent="5.0 (Macintosh; Intel Mac OS X 10_15_7) AppleWebKit/605.1.15 (KHTML, like Gecko) Version/14.0.3 Safari/605.1.15" etag="HeTuN2_itUUtbZY-TlPh" version="14.5.1" type="github">
  <diagram id="QZzP0EMKJMDrTcMKZgiN" name="Page-1">
    <mxGraphModel dx="759" dy="911" grid="1" gridSize="10" guides="1" tooltips="1" connect="1" arrows="1" fold="1" page="1" pageScale="1" pageWidth="827" pageHeight="1169" math="0" shadow="0">
      <root>
        <mxCell id="0" />
        <mxCell id="1" parent="0" />
        <mxCell id="j8ow9nhw6-VZU_b_nEEo-6" value="" style="rounded=0;whiteSpace=wrap;html=1;fillColor=#f5f5f5;strokeColor=#666666;fontColor=#333333;" vertex="1" parent="1">
          <mxGeometry x="235" y="230" width="190" height="195" as="geometry" />
        </mxCell>
        <mxCell id="j8ow9nhw6-VZU_b_nEEo-4" style="edgeStyle=orthogonalEdgeStyle;rounded=0;orthogonalLoop=1;jettySize=auto;html=1;exitX=0.5;exitY=1;exitDx=0;exitDy=0;entryX=0.5;entryY=0;entryDx=0;entryDy=0;" edge="1" parent="1" source="j8ow9nhw6-VZU_b_nEEo-1" target="j8ow9nhw6-VZU_b_nEEo-2">
          <mxGeometry relative="1" as="geometry" />
        </mxCell>
        <mxCell id="j8ow9nhw6-VZU_b_nEEo-1" value="Read each image from input folder" style="rounded=1;whiteSpace=wrap;html=1;" vertex="1" parent="1">
          <mxGeometry x="270" y="150" width="120" height="60" as="geometry" />
        </mxCell>
        <mxCell id="j8ow9nhw6-VZU_b_nEEo-5" style="edgeStyle=orthogonalEdgeStyle;rounded=0;orthogonalLoop=1;jettySize=auto;html=1;exitX=0.5;exitY=1;exitDx=0;exitDy=0;entryX=0.5;entryY=0;entryDx=0;entryDy=0;" edge="1" parent="1" source="j8ow9nhw6-VZU_b_nEEo-2" target="j8ow9nhw6-VZU_b_nEEo-3">
          <mxGeometry relative="1" as="geometry" />
        </mxCell>
        <mxCell id="j8ow9nhw6-VZU_b_nEEo-2" value="Detect puzzle piece" style="rounded=1;whiteSpace=wrap;html=1;" vertex="1" parent="1">
          <mxGeometry x="270" y="250" width="120" height="60" as="geometry" />
        </mxCell>
        <mxCell id="j8ow9nhw6-VZU_b_nEEo-8" style="edgeStyle=orthogonalEdgeStyle;rounded=0;orthogonalLoop=1;jettySize=auto;html=1;exitX=0.5;exitY=1;exitDx=0;exitDy=0;" edge="1" parent="1" source="j8ow9nhw6-VZU_b_nEEo-3">
          <mxGeometry relative="1" as="geometry">
            <mxPoint x="330" y="450" as="targetPoint" />
          </mxGeometry>
        </mxCell>
        <mxCell id="j8ow9nhw6-VZU_b_nEEo-3" value="Detect corners" style="rounded=1;whiteSpace=wrap;html=1;" vertex="1" parent="1">
          <mxGeometry x="270" y="350" width="120" height="60" as="geometry" />
        </mxCell>
        <mxCell id="j8ow9nhw6-VZU_b_nEEo-9" value="Output corner coordinates" style="rounded=1;whiteSpace=wrap;html=1;" vertex="1" parent="1">
          <mxGeometry x="270" y="450" width="120" height="60" as="geometry" />
        </mxCell>
      </root>
    </mxGraphModel>
  </diagram>
</mxfile>
